<svg width="16" height="20" viewBox="0 0 16 20" fill="none" xmlns="http://www.w3.org/2000/svg">
<path fill-rule="evenodd" clip-rule="evenodd" d="M4.9 -1.52588e-05H11.07C13.78 -1.52588e-05 15.97 1.06998 16 3.78998V18.97C16 19.14 15.96 19.31 15.88 19.46C15.75 19.7 15.53 19.88 15.26 19.96C15 20.04 14.71 20 14.47 19.86L7.99 16.62L1.5 19.86C1.351 19.939 1.18 19.99 1.01 19.99C0.45 19.99 0 19.53 0 18.97V3.78998C0 1.06998 2.2 -1.52588e-05 4.9 -1.52588e-05ZM4.22003 7.62H11.75C12.18 7.62 12.53 7.269 12.53 6.83C12.53 6.39 12.18 6.04 11.75 6.04H4.22003C3.79003 6.04 3.44003 6.39 3.44003 6.83C3.44003 7.269 3.79003 7.62 4.22003 7.62Z" fill="#7C7C7C"/>
</svg>
