<svg width="283" height="122" viewBox="0 0 283 122" fill="none" xmlns="http://www.w3.org/2000/svg">
<g filter="url(#filter0_d_511_10)">
<rect x="16" y="16" width="251" height="56" rx="24" fill="url(#paint0_linear_511_10)"/>
<path d="M105.258 47.516H101.066L100.394 49.5H97.5298L101.594 38.268H104.762L108.826 49.5H105.93L105.258 47.516ZM104.554 45.404L103.162 41.292L101.786 45.404H104.554ZM112.879 41.836C113.145 41.42 113.513 41.084 113.983 40.828C114.452 40.572 115.001 40.444 115.631 40.444C116.367 40.444 117.033 40.6307 117.631 41.004C118.228 41.3773 118.697 41.9107 119.039 42.604C119.391 43.2973 119.567 44.1027 119.567 45.02C119.567 45.9373 119.391 46.748 119.039 47.452C118.697 48.1453 118.228 48.684 117.631 49.068C117.033 49.4413 116.367 49.628 115.631 49.628C115.012 49.628 114.463 49.5 113.983 49.244C113.513 48.988 113.145 48.6573 112.879 48.252V53.756H110.143V40.572H112.879V41.836ZM116.783 45.02C116.783 44.3373 116.591 43.804 116.207 43.42C115.833 43.0253 115.369 42.828 114.815 42.828C114.271 42.828 113.807 43.0253 113.423 43.42C113.049 43.8147 112.863 44.3533 112.863 45.036C112.863 45.7187 113.049 46.2573 113.423 46.652C113.807 47.0467 114.271 47.244 114.815 47.244C115.359 47.244 115.823 47.0467 116.207 46.652C116.591 46.2467 116.783 45.7027 116.783 45.02ZM123.818 41.836C124.085 41.42 124.453 41.084 124.922 40.828C125.391 40.572 125.941 40.444 126.57 40.444C127.306 40.444 127.973 40.6307 128.57 41.004C129.167 41.3773 129.637 41.9107 129.978 42.604C130.33 43.2973 130.506 44.1027 130.506 45.02C130.506 45.9373 130.33 46.748 129.978 47.452C129.637 48.1453 129.167 48.684 128.57 49.068C127.973 49.4413 127.306 49.628 126.57 49.628C125.951 49.628 125.402 49.5 124.922 49.244C124.453 48.988 124.085 48.6573 123.818 48.252V53.756H121.082V40.572H123.818V41.836ZM127.722 45.02C127.722 44.3373 127.53 43.804 127.146 43.42C126.773 43.0253 126.309 42.828 125.754 42.828C125.21 42.828 124.746 43.0253 124.362 43.42C123.989 43.8147 123.802 44.3533 123.802 45.036C123.802 45.7187 123.989 46.2573 124.362 46.652C124.746 47.0467 125.21 47.244 125.754 47.244C126.298 47.244 126.762 47.0467 127.146 46.652C127.53 46.2467 127.722 45.7027 127.722 45.02ZM134.757 37.66V49.5H132.021V37.66H134.757ZM145.94 40.572L140.34 53.74H137.396L139.444 49.196L135.812 40.572H138.868L140.932 46.156L142.98 40.572H145.94ZM160.528 49.5H157.792L153.216 42.572V49.5H150.48V38.268H153.216L157.792 45.228V38.268H160.528V49.5ZM166.655 49.628C165.781 49.628 164.991 49.4413 164.287 49.068C163.594 48.6947 163.045 48.1613 162.639 47.468C162.245 46.7747 162.047 45.964 162.047 45.036C162.047 44.1187 162.25 43.3133 162.655 42.62C163.061 41.916 163.615 41.3773 164.319 41.004C165.023 40.6307 165.813 40.444 166.687 40.444C167.562 40.444 168.351 40.6307 169.055 41.004C169.759 41.3773 170.314 41.916 170.719 42.62C171.125 43.3133 171.327 44.1187 171.327 45.036C171.327 45.9533 171.119 46.764 170.703 47.468C170.298 48.1613 169.738 48.6947 169.023 49.068C168.319 49.4413 167.53 49.628 166.655 49.628ZM166.655 47.26C167.178 47.26 167.621 47.068 167.983 46.684C168.357 46.3 168.543 45.7507 168.543 45.036C168.543 44.3213 168.362 43.772 167.999 43.388C167.647 43.004 167.21 42.812 166.687 42.812C166.154 42.812 165.711 43.004 165.359 43.388C165.007 43.7613 164.831 44.3107 164.831 45.036C164.831 45.7507 165.002 46.3 165.343 46.684C165.695 47.068 166.133 47.26 166.655 47.26ZM185.675 40.572L183.259 49.5H180.235L178.827 43.708L177.371 49.5H174.363L171.931 40.572H174.667L175.931 46.956L177.435 40.572H180.331L181.851 46.924L183.099 40.572H185.675Z" fill="white"/>
</g>
<defs>
<filter id="filter0_d_511_10" x="-24" y="-14" width="331" height="136" filterUnits="userSpaceOnUse" color-interpolation-filters="sRGB">
<feFlood flood-opacity="0" result="BackgroundImageFix"/>
<feColorMatrix in="SourceAlpha" type="matrix" values="0 0 0 0 0 0 0 0 0 0 0 0 0 0 0 0 0 0 127 0" result="hardAlpha"/>
<feOffset dy="10"/>
<feGaussianBlur stdDeviation="20"/>
<feColorMatrix type="matrix" values="0 0 0 0 0.313726 0 0 0 0 0.376471 0 0 0 0 1 0 0 0 0.25 0"/>
<feBlend mode="normal" in2="BackgroundImageFix" result="effect1_dropShadow_511_10"/>
<feBlend mode="normal" in="SourceGraphic" in2="effect1_dropShadow_511_10" result="shape"/>
</filter>
<linearGradient id="paint0_linear_511_10" x1="234.532" y1="55.6097" x2="-12.0002" y2="7.31044" gradientUnits="userSpaceOnUse">
<stop stop-color="#5060FF"/>
<stop offset="1" stop-color="#8A94FF"/>
</linearGradient>
</defs>
</svg>
