<svg width="20" height="18" viewBox="0 0 20 18" fill="none" xmlns="http://www.w3.org/2000/svg">
<path fill-rule="evenodd" clip-rule="evenodd" d="M6.87774 3.37856C6.87774 5.24523 5.33886 6.75821 3.43887 6.75821C1.53999 6.75821 0 5.24523 0 3.37856C0 1.51298 1.53999 0 3.43887 0C5.33886 0 6.87774 1.51298 6.87774 3.37856ZM18.4934 1.89834C19.3245 1.89834 20 2.56205 20 3.37858C20 4.1962 19.3245 4.8599 18.4934 4.8599H11.9178C11.0856 4.8599 10.4101 4.1962 10.4101 3.37858C10.4101 2.56205 11.0856 1.89834 11.9178 1.89834H18.4934ZM1.50777 12.9579H8.08329C8.9155 12.9579 9.59106 13.6216 9.59106 14.4393C9.59106 15.2558 8.9155 15.9206 8.08329 15.9206H1.50777C0.675552 15.9206 0 15.2558 0 14.4393C0 13.6216 0.675552 12.9579 1.50777 12.9579ZM16.5611 17.7778C18.4611 17.7778 20 16.2648 20 14.3992C20 12.5325 18.4611 11.0196 16.5611 11.0196C14.6622 11.0196 13.1223 12.5325 13.1223 14.3992C13.1223 16.2648 14.6622 17.7778 16.5611 17.7778Z" fill="#3B3B3B"/>
</svg>
