<svg width="12" height="14" viewBox="0 0 12 14" fill="none" xmlns="http://www.w3.org/2000/svg">
<path fill-rule="evenodd" clip-rule="evenodd" d="M0.333313 5.8785C0.333313 2.81192 2.8959 0.333328 5.99561 0.333328C9.10406 0.333328 11.6666 2.81192 11.6666 5.8785C11.6666 7.42379 11.1047 8.85841 10.1796 10.0744C9.15918 11.4157 7.90142 12.5843 6.48567 13.5016C6.16165 13.7136 5.86923 13.7296 5.51361 13.5016C4.0898 12.5843 2.83204 11.4157 1.82031 10.0744C0.894635 8.85841 0.333313 7.42379 0.333313 5.8785ZM4.12947 6.05115C4.12947 7.07846 4.96776 7.88644 5.99562 7.88644C7.02415 7.88644 7.8705 7.07846 7.8705 6.05115C7.8705 5.03185 7.02415 4.18454 5.99562 4.18454C4.96776 4.18454 4.12947 5.03185 4.12947 6.05115Z" fill="#7C7C7C"/>
</svg>
