<svg width="20" height="20" viewBox="0 0 20 20" fill="none" xmlns="http://www.w3.org/2000/svg">
<path fill-rule="evenodd" clip-rule="evenodd" d="M10 9.11156e-05C15.52 9.13569e-05 20 4.47009 20 10.0001C20 15.5201 15.52 20.0001 10 20.0001C4.48 20.0001 1.22895e-06 15.5201 1.47023e-06 10.0001C1.71196e-06 4.47009 4.48 9.08743e-05 10 9.11156e-05ZM8.79999 5.5201C8.79999 4.8601 9.33999 4.3201 9.99999 4.3201C10.66 4.3201 11.199 4.8601 11.199 5.5201C11.199 6.1801 10.66 6.7101 9.99999 6.7101C9.33999 6.7101 8.79999 6.1801 8.79999 5.5201ZM9.99999 8.8001C9.33999 8.8001 8.79999 9.3401 8.79999 10.0001C8.79999 10.6601 9.33999 11.1901 9.99999 11.1901C10.66 11.1901 11.199 10.6601 11.199 10.0001C11.199 9.3401 10.66 8.8001 9.99999 8.8001ZM9.99999 13.2801C9.33999 13.2801 8.79999 13.8101 8.79999 14.4801C8.79999 15.1401 9.33999 15.6701 9.99999 15.6701C10.66 15.6701 11.199 15.1401 11.199 14.4801C11.199 13.8101 10.66 13.2801 9.99999 13.2801Z" fill="#7C7C7C"/>
</svg>
