<svg width="14" height="12" viewBox="0 0 14 12" fill="none" xmlns="http://www.w3.org/2000/svg">
<path fill-rule="evenodd" clip-rule="evenodd" d="M4.39843 6C4.39843 7.42222 5.56265 8.5794 7.00005 8.5794C8.43095 8.5794 9.59517 7.42222 9.59517 6C9.59517 4.57132 8.43095 3.41414 7.00005 3.41414C5.56265 3.41414 4.39843 4.57132 4.39843 6ZM10.8244 2.03071C11.9626 2.9099 12.9317 4.19637 13.6277 5.80606C13.6797 5.92889 13.6797 6.07112 13.6277 6.18748C12.2358 9.40687 9.75776 11.3333 7.00004 11.3333H6.99354C4.24232 11.3333 1.76427 9.40687 0.372398 6.18748C0.320366 6.07112 0.320366 5.92889 0.372398 5.80606C1.76427 2.58667 4.24232 0.666672 6.99354 0.666672H7.00004C8.3789 0.666672 9.68622 1.14506 10.8244 2.03071ZM7.00083 7.60829C7.89188 7.60829 8.62034 6.88425 8.62034 5.99859C8.62034 5.10647 7.89188 4.38243 7.00083 4.38243C6.92278 4.38243 6.84473 4.38889 6.77318 4.40182C6.74717 5.11293 6.1618 5.68182 5.43985 5.68182H5.40733C5.38782 5.78526 5.37481 5.88869 5.37481 5.99859C5.37481 6.88425 6.10327 7.60829 7.00083 7.60829Z" fill="#7C7C7C"/>
</svg>
